{
	"asset":{
		"generator":"Khronos glTF Blender I/O v4.1.62",
		"version":"2.0"
	},
	"scene":0,
	"scenes":[
		{
			"name":"Scene",
			"nodes":[
				0,
				1,
				2,
				3,
				4,
				5,
				6,
				7,
				8,
				9,
				10
			]
		}
	],
	"nodes":[
		{
			"mesh":0,
			"name":"Dinghy",
			"scale":[
				0.09999999403953552,
				0.09999999403953552,
				0.09999999403953552
			]
		},
		{
			"mesh":1,
			"name":"Dinghy_Daggerboard",
			"scale":[
				0.09999999403953552,
				0.09999999403953552,
				0.09999999403953552
			]
		},
		{
			"mesh":2,
			"name":"Dinghy_Pole",
			"scale":[
				0.09999999403953552,
				0.09999999403953552,
				0.09999999403953552
			]
		},
		{
			"mesh":3,
			"name":"Dinghy_Bench",
			"scale":[
				0.09999999403953552,
				0.09999999403953552,
				0.09999999403953552
			]
		},
		{
			"mesh":4,
			"name":"Dinghy_Rudder",
			"scale":[
				0.09999999403953552,
				0.09999999403953552,
				0.09999999403953552
			]
		},
		{
			"mesh":5,
			"name":"Ladder",
			"rotation":[
				0.693682849407196,
				0.13712815940380096,
				0.13712814450263977,
				0.693682849407196
			],
			"scale":[
				0.16034793853759766,
				1.2031340599060059,
				0.16034793853759766
			]
		},
		{
			"mesh":6,
			"name":"LadderStep1",
			"scale":[
				0.3307444453239441,
				0.10460102558135986,
				0.3307444453239441
			]
		},
		{
			"mesh":7,
			"name":"LadderStep2",
			"scale":[
				0.3307444453239441,
				0.10460102558135986,
				0.3307444453239441
			]
		},
		{
			"mesh":8,
			"name":"EngineSupport",
			"rotation":[
				0,
				0,
				-0.10484914481639862,
				0.9944881200790405
			],
			"scale":[
				0.09082673490047455,
				0.8440579175949097,
				1.022791862487793
			]
		},
		{
			"mesh":9,
			"name":"Dinghy_Boom",
			"scale":[
				10,
				10,
				10
			]
		},
		{
			"mesh":10,
			"name":"Sail",
			"rotation":[
				0.7071068286895752,
				0,
				0,
				0.7071068286895752
			],
			"scale":[
				10,
				10,
				10
			]
		}
	],
	"materials":[
		{
			"doubleSided":true,
			"name":"basicWood",
			"pbrMetallicRoughness":{
				"metallicFactor":0
			}
		},
		{
			"doubleSided":true,
			"name":"basicWoodDagger",
			"pbrMetallicRoughness":{
				"metallicFactor":0
			}
		},
		{
			"doubleSided":true,
			"name":"basicWoodPole",
			"pbrMetallicRoughness":{
				"metallicFactor":0
			}
		},
		{
			"doubleSided":true,
			"name":"basicWoodBench",
			"pbrMetallicRoughness":{
				"metallicFactor":0
			}
		},
		{
			"doubleSided":true,
			"name":"basicWoodRudder",
			"pbrMetallicRoughness":{
				"metallicFactor":0
			}
		},
		{
			"doubleSided":true,
			"name":"Metal",
			"pbrMetallicRoughness":{
				"baseColorFactor":[
					0.800000011920929,
					0.800000011920929,
					0.800000011920929,
					1
				],
				"metallicFactor":0.24242427945137024,
				"roughnessFactor":0.1818181872367859
			}
		}
	],
	"meshes":[
		{
			"name":"Spirit_Dinghy",
			"primitives":[
				{
					"attributes":{
						"POSITION":0,
						"NORMAL":1,
						"TEXCOORD_0":2
					},
					"indices":3,
					"material":0
				}
			]
		},
		{
			"name":"Spirit_Dinghy.001",
			"primitives":[
				{
					"attributes":{
						"POSITION":4,
						"NORMAL":5,
						"TEXCOORD_0":6
					},
					"indices":7,
					"material":1
				}
			]
		},
		{
			"name":"Spirit_Dinghy.002",
			"primitives":[
				{
					"attributes":{
						"POSITION":8,
						"NORMAL":9,
						"TEXCOORD_0":10
					},
					"indices":11,
					"material":2
				}
			]
		},
		{
			"name":"Spirit_Dinghy.003",
			"primitives":[
				{
					"attributes":{
						"POSITION":12,
						"NORMAL":13,
						"TEXCOORD_0":14
					},
					"indices":15,
					"material":3
				}
			]
		},
		{
			"name":"Spirit_Dinghy.004",
			"primitives":[
				{
					"attributes":{
						"POSITION":16,
						"NORMAL":17,
						"TEXCOORD_0":18
					},
					"indices":19,
					"material":4
				}
			]
		},
		{
			"name":"Cylinder",
			"primitives":[
				{
					"attributes":{
						"POSITION":20,
						"NORMAL":21,
						"TEXCOORD_0":22
					},
					"indices":23,
					"material":5
				}
			]
		},
		{
			"name":"Cylinder.002",
			"primitives":[
				{
					"attributes":{
						"POSITION":24,
						"NORMAL":25,
						"TEXCOORD_0":26
					},
					"indices":27
				}
			]
		},
		{
			"name":"Cylinder.003",
			"primitives":[
				{
					"attributes":{
						"POSITION":28,
						"NORMAL":29,
						"TEXCOORD_0":30
					},
					"indices":27
				}
			]
		},
		{
			"name":"Cube",
			"primitives":[
				{
					"attributes":{
						"POSITION":31,
						"NORMAL":32,
						"TEXCOORD_0":33
					},
					"indices":34,
					"material":1
				}
			]
		},
		{
			"name":"Circle",
			"primitives":[
				{
					"attributes":{
						"POSITION":35,
						"NORMAL":36,
						"TEXCOORD_0":37
					},
					"indices":38,
					"material":0
				}
			]
		},
		{
			"name":"Plane",
			"primitives":[
				{
					"attributes":{
						"POSITION":39,
						"NORMAL":40,
						"TEXCOORD_0":41
					},
					"indices":42
				}
			]
		}
	],
	"accessors":[
		{
			"bufferView":0,
			"componentType":5126,
			"count":2383,
			"max":[
				150.9064483642578,
				51.87525177001953,
				62.019195556640625
			],
			"min":[
				-124.78517150878906,
				-9.623546600341797,
				-62.019203186035156
			],
			"type":"VEC3"
		},
		{
			"bufferView":1,
			"componentType":5126,
			"count":2383,
			"type":"VEC3"
		},
		{
			"bufferView":2,
			"componentType":5126,
			"count":2383,
			"type":"VEC2"
		},
		{
			"bufferView":3,
			"componentType":5123,
			"count":4395,
			"type":"SCALAR"
		},
		{
			"bufferView":4,
			"componentType":5126,
			"count":102,
			"max":[
				32.5,
				28.647174835205078,
				1.5
			],
			"min":[
				-1.3113415775478643e-07,
				-65.64362335205078,
				-1.5000028610229492
			],
			"type":"VEC3"
		},
		{
			"bufferView":5,
			"componentType":5126,
			"count":102,
			"type":"VEC3"
		},
		{
			"bufferView":6,
			"componentType":5126,
			"count":102,
			"type":"VEC2"
		},
		{
			"bufferView":7,
			"componentType":5123,
			"count":192,
			"type":"SCALAR"
		},
		{
			"bufferView":8,
			"componentType":5126,
			"count":2640,
			"max":[
				88.14324951171875,
				397.7045593261719,
				2.9990386962890625
			],
			"min":[
				82.14517211914062,
				-2.2953877449035645,
				-2.999053955078125
			],
			"type":"VEC3"
		},
		{
			"bufferView":9,
			"componentType":5126,
			"count":2640,
			"type":"VEC3"
		},
		{
			"bufferView":10,
			"componentType":5126,
			"count":2640,
			"type":"VEC2"
		},
		{
			"bufferView":11,
			"componentType":5123,
			"count":7632,
			"type":"SCALAR"
		},
		{
			"bufferView":12,
			"componentType":5126,
			"count":72,
			"max":[
				-76.5,
				28.622177124023438,
				53.64407730102539
			],
			"min":[
				-119.03857421875,
				27.122177124023438,
				-53.644065856933594
			],
			"type":"VEC3"
		},
		{
			"bufferView":13,
			"componentType":5126,
			"count":72,
			"type":"VEC3"
		},
		{
			"bufferView":14,
			"componentType":5126,
			"count":72,
			"type":"VEC2"
		},
		{
			"bufferView":15,
			"componentType":5123,
			"count":132,
			"type":"SCALAR"
		},
		{
			"bufferView":16,
			"componentType":5126,
			"count":402,
			"max":[
				-109.01898193359375,
				54.401756286621094,
				1.5000126361846924
			],
			"min":[
				-144.4847869873047,
				-37.551971435546875,
				-1.499990463256836
			],
			"type":"VEC3"
		},
		{
			"bufferView":17,
			"componentType":5126,
			"count":402,
			"type":"VEC3"
		},
		{
			"bufferView":18,
			"componentType":5126,
			"count":402,
			"type":"VEC2"
		},
		{
			"bufferView":19,
			"componentType":5123,
			"count":804,
			"type":"SCALAR"
		},
		{
			"bufferView":20,
			"componentType":5126,
			"count":4022,
			"max":[
				-60.91944122314453,
				-0.32963043451309204,
				-22.779882431030273
			],
			"min":[
				-81.09622192382812,
				-2.9718406200408936,
				-54.681339263916016
			],
			"type":"VEC3"
		},
		{
			"bufferView":21,
			"componentType":5126,
			"count":4022,
			"type":"VEC3"
		},
		{
			"bufferView":22,
			"componentType":5126,
			"count":4022,
			"type":"VEC2"
		},
		{
			"bufferView":23,
			"componentType":5123,
			"count":6132,
			"type":"SCALAR"
		},
		{
			"bufferView":24,
			"componentType":5126,
			"count":180,
			"max":[
				-36.84869384765625,
				26.262516021728516,
				-1.07427978515625
			],
			"min":[
				-38.837738037109375,
				24.262516021728516,
				-10.935333251953125
			],
			"type":"VEC3"
		},
		{
			"bufferView":25,
			"componentType":5126,
			"count":180,
			"type":"VEC3"
		},
		{
			"bufferView":26,
			"componentType":5126,
			"count":180,
			"type":"VEC2"
		},
		{
			"bufferView":27,
			"componentType":5123,
			"count":348,
			"type":"SCALAR"
		},
		{
			"bufferView":28,
			"componentType":5126,
			"count":180,
			"max":[
				-36.999759674072266,
				5.722729206085205,
				-1.0742802619934082
			],
			"min":[
				-38.98880386352539,
				3.7227301597595215,
				-10.935333251953125
			],
			"type":"VEC3"
		},
		{
			"bufferView":29,
			"componentType":5126,
			"count":180,
			"type":"VEC3"
		},
		{
			"bufferView":30,
			"componentType":5126,
			"count":180,
			"type":"VEC2"
		},
		{
			"bufferView":31,
			"componentType":5126,
			"count":24,
			"max":[
				-135.19419860839844,
				2.397409439086914,
				3.498795509338379
			],
			"min":[
				-145.16636657714844,
				0.34318405389785767,
				1.498795509338379
			],
			"type":"VEC3"
		},
		{
			"bufferView":32,
			"componentType":5126,
			"count":24,
			"type":"VEC3"
		},
		{
			"bufferView":33,
			"componentType":5126,
			"count":24,
			"type":"VEC2"
		},
		{
			"bufferView":34,
			"componentType":5123,
			"count":36,
			"type":"SCALAR"
		},
		{
			"bufferView":35,
			"componentType":5126,
			"count":120,
			"max":[
				0.8035632967948914,
				1.0656644105911255,
				0.03000182844698429
			],
			"min":[
				-1.0769851207733154,
				1.005664587020874,
				-0.030000068247318268
			],
			"type":"VEC3"
		},
		{
			"bufferView":36,
			"componentType":5126,
			"count":120,
			"type":"VEC3"
		},
		{
			"bufferView":37,
			"componentType":5126,
			"count":120,
			"type":"VEC2"
		},
		{
			"bufferView":38,
			"componentType":5123,
			"count":228,
			"type":"SCALAR"
		},
		{
			"bufferView":39,
			"componentType":5126,
			"count":35495,
			"max":[
				0.8267189264297485,
				0.001474518096074462,
				-1.0375170707702637
			],
			"min":[
				-1.070801854133606,
				-0.22775878012180328,
				-3.945361614227295
			],
			"type":"VEC3"
		},
		{
			"bufferView":40,
			"componentType":5126,
			"count":35495,
			"type":"VEC3"
		},
		{
			"bufferView":41,
			"componentType":5126,
			"count":35495,
			"type":"VEC2"
		},
		{
			"bufferView":42,
			"componentType":5123,
			"count":53472,
			"type":"SCALAR"
		}
	],
	"bufferViews":[
		{
			"buffer":0,
			"byteLength":28596,
			"byteOffset":0,
			"target":34962
		},
		{
			"buffer":0,
			"byteLength":28596,
			"byteOffset":28596,
			"target":34962
		},
		{
			"buffer":0,
			"byteLength":19064,
			"byteOffset":57192,
			"target":34962
		},
		{
			"buffer":0,
			"byteLength":8790,
			"byteOffset":76256,
			"target":34963
		},
		{
			"buffer":0,
			"byteLength":1224,
			"byteOffset":85048,
			"target":34962
		},
		{
			"buffer":0,
			"byteLength":1224,
			"byteOffset":86272,
			"target":34962
		},
		{
			"buffer":0,
			"byteLength":816,
			"byteOffset":87496,
			"target":34962
		},
		{
			"buffer":0,
			"byteLength":384,
			"byteOffset":88312,
			"target":34963
		},
		{
			"buffer":0,
			"byteLength":31680,
			"byteOffset":88696,
			"target":34962
		},
		{
			"buffer":0,
			"byteLength":31680,
			"byteOffset":120376,
			"target":34962
		},
		{
			"buffer":0,
			"byteLength":21120,
			"byteOffset":152056,
			"target":34962
		},
		{
			"buffer":0,
			"byteLength":15264,
			"byteOffset":173176,
			"target":34963
		},
		{
			"buffer":0,
			"byteLength":864,
			"byteOffset":188440,
			"target":34962
		},
		{
			"buffer":0,
			"byteLength":864,
			"byteOffset":189304,
			"target":34962
		},
		{
			"buffer":0,
			"byteLength":576,
			"byteOffset":190168,
			"target":34962
		},
		{
			"buffer":0,
			"byteLength":264,
			"byteOffset":190744,
			"target":34963
		},
		{
			"buffer":0,
			"byteLength":4824,
			"byteOffset":191008,
			"target":34962
		},
		{
			"buffer":0,
			"byteLength":4824,
			"byteOffset":195832,
			"target":34962
		},
		{
			"buffer":0,
			"byteLength":3216,
			"byteOffset":200656,
			"target":34962
		},
		{
			"buffer":0,
			"byteLength":1608,
			"byteOffset":203872,
			"target":34963
		},
		{
			"buffer":0,
			"byteLength":48264,
			"byteOffset":205480,
			"target":34962
		},
		{
			"buffer":0,
			"byteLength":48264,
			"byteOffset":253744,
			"target":34962
		},
		{
			"buffer":0,
			"byteLength":32176,
			"byteOffset":302008,
			"target":34962
		},
		{
			"buffer":0,
			"byteLength":12264,
			"byteOffset":334184,
			"target":34963
		},
		{
			"buffer":0,
			"byteLength":2160,
			"byteOffset":346448,
			"target":34962
		},
		{
			"buffer":0,
			"byteLength":2160,
			"byteOffset":348608,
			"target":34962
		},
		{
			"buffer":0,
			"byteLength":1440,
			"byteOffset":350768,
			"target":34962
		},
		{
			"buffer":0,
			"byteLength":696,
			"byteOffset":352208,
			"target":34963
		},
		{
			"buffer":0,
			"byteLength":2160,
			"byteOffset":352904,
			"target":34962
		},
		{
			"buffer":0,
			"byteLength":2160,
			"byteOffset":355064,
			"target":34962
		},
		{
			"buffer":0,
			"byteLength":1440,
			"byteOffset":357224,
			"target":34962
		},
		{
			"buffer":0,
			"byteLength":288,
			"byteOffset":358664,
			"target":34962
		},
		{
			"buffer":0,
			"byteLength":288,
			"byteOffset":358952,
			"target":34962
		},
		{
			"buffer":0,
			"byteLength":192,
			"byteOffset":359240,
			"target":34962
		},
		{
			"buffer":0,
			"byteLength":72,
			"byteOffset":359432,
			"target":34963
		},
		{
			"buffer":0,
			"byteLength":1440,
			"byteOffset":359504,
			"target":34962
		},
		{
			"buffer":0,
			"byteLength":1440,
			"byteOffset":360944,
			"target":34962
		},
		{
			"buffer":0,
			"byteLength":960,
			"byteOffset":362384,
			"target":34962
		},
		{
			"buffer":0,
			"byteLength":456,
			"byteOffset":363344,
			"target":34963
		},
		{
			"buffer":0,
			"byteLength":425940,
			"byteOffset":363800,
			"target":34962
		},
		{
			"buffer":0,
			"byteLength":425940,
			"byteOffset":789740,
			"target":34962
		},
		{
			"buffer":0,
			"byteLength":283960,
			"byteOffset":1215680,
			"target":34962
		},
		{
			"buffer":0,
			"byteLength":106944,
			"byteOffset":1499640,
			"target":34963
		}
	],
	"buffers":[
		{
			"byteLength":1606584,
			"uri":"basicDinghy.bin"
		}
	]
}
