{
	"asset":{
		"generator":"Khronos glTF Blender I/O v4.1.62",
		"version":"2.0"
	},
	"scene":0,
	"scenes":[
		{
			"name":"Scene",
			"nodes":[
				0,
				1,
				2,
				3,
				4
			]
		}
	],
	"nodes":[
		{
			"mesh":0,
			"name":"Spirit_Dinghy",
			"scale":[
				0.009999999776482582,
				0.009999999776482582,
				0.009999999776482582
			]
		},
		{
			"mesh":1,
			"name":"Spirit_Dinghy.001",
			"scale":[
				0.009999999776482582,
				0.009999999776482582,
				0.009999999776482582
			]
		},
		{
			"mesh":2,
			"name":"Spirit_Dinghy.002",
			"scale":[
				0.009999999776482582,
				0.009999999776482582,
				0.009999999776482582
			]
		},
		{
			"mesh":3,
			"name":"Spirit_Dinghy.003",
			"scale":[
				0.009999999776482582,
				0.009999999776482582,
				0.009999999776482582
			]
		},
		{
			"mesh":4,
			"name":"Spirit_Dinghy.004",
			"scale":[
				0.009999999776482582,
				0.009999999776482582,
				0.009999999776482582
			]
		}
	],
	"materials":[
		{
			"doubleSided":true,
			"name":"basicWood",
			"pbrMetallicRoughness":{
				"metallicFactor":0
			}
		},
		{
			"doubleSided":true,
			"name":"basicWoodDagger",
			"pbrMetallicRoughness":{
				"metallicFactor":0
			}
		},
		{
			"doubleSided":true,
			"name":"basicWoodPole",
			"pbrMetallicRoughness":{
				"metallicFactor":0
			}
		},
		{
			"doubleSided":true,
			"name":"basicWoodBench",
			"pbrMetallicRoughness":{
				"metallicFactor":0
			}
		},
		{
			"doubleSided":true,
			"name":"basicWoodRudder",
			"pbrMetallicRoughness":{
				"metallicFactor":0
			}
		}
	],
	"meshes":[
		{
			"name":"Spirit_Dinghy",
			"primitives":[
				{
					"attributes":{
						"POSITION":0,
						"NORMAL":1
					},
					"indices":2,
					"material":0
				}
			]
		},
		{
			"name":"Spirit_Dinghy.001",
			"primitives":[
				{
					"attributes":{
						"POSITION":3,
						"NORMAL":4
					},
					"indices":5,
					"material":1
				}
			]
		},
		{
			"name":"Spirit_Dinghy.002",
			"primitives":[
				{
					"attributes":{
						"POSITION":6,
						"NORMAL":7
					},
					"indices":8,
					"material":2
				}
			]
		},
		{
			"name":"Spirit_Dinghy.003",
			"primitives":[
				{
					"attributes":{
						"POSITION":9,
						"NORMAL":10
					},
					"indices":11,
					"material":3
				}
			]
		},
		{
			"name":"Spirit_Dinghy.004",
			"primitives":[
				{
					"attributes":{
						"POSITION":12,
						"NORMAL":13
					},
					"indices":14,
					"material":4
				}
			]
		}
	],
	"accessors":[
		{
			"bufferView":0,
			"componentType":5126,
			"count":2373,
			"max":[
				124.78517150878906,
				59.896034240722656,
				62.019203186035156
			],
			"min":[
				-150.9064483642578,
				-1.6027641296386719,
				-62.019195556640625
			],
			"type":"VEC3"
		},
		{
			"bufferView":1,
			"componentType":5126,
			"count":2373,
			"type":"VEC3"
		},
		{
			"bufferView":2,
			"componentType":5123,
			"count":4395,
			"type":"SCALAR"
		},
		{
			"bufferView":3,
			"componentType":5126,
			"count":102,
			"max":[
				0,
				36.6679573059082,
				1.5
			],
			"min":[
				-32.5,
				-57.622840881347656,
				-1.5
			],
			"type":"VEC3"
		},
		{
			"bufferView":4,
			"componentType":5126,
			"count":102,
			"type":"VEC3"
		},
		{
			"bufferView":5,
			"componentType":5123,
			"count":192,
			"type":"SCALAR"
		},
		{
			"bufferView":6,
			"componentType":5126,
			"count":2640,
			"max":[
				-100.00096130371094,
				405.7253723144531,
				2.9990463256835938
			],
			"min":[
				-105.99903869628906,
				5.725395202636719,
				-2.9990463256835938
			],
			"type":"VEC3"
		},
		{
			"bufferView":7,
			"componentType":5126,
			"count":2640,
			"type":"VEC3"
		},
		{
			"bufferView":8,
			"componentType":5123,
			"count":7632,
			"type":"SCALAR"
		},
		{
			"bufferView":9,
			"componentType":5126,
			"count":72,
			"max":[
				119.03857421875,
				36.64295959472656,
				53.644073486328125
			],
			"min":[
				76.5,
				35.14295959472656,
				-53.64406967163086
			],
			"type":"VEC3"
		},
		{
			"bufferView":10,
			"componentType":5126,
			"count":72,
			"type":"VEC3"
		},
		{
			"bufferView":11,
			"componentType":5123,
			"count":132,
			"type":"SCALAR"
		},
		{
			"bufferView":12,
			"componentType":5126,
			"count":402,
			"max":[
				144.4847869873047,
				62.42253875732422,
				1.5
			],
			"min":[
				109.01898193359375,
				-29.53118896484375,
				-1.5
			],
			"type":"VEC3"
		},
		{
			"bufferView":13,
			"componentType":5126,
			"count":402,
			"type":"VEC3"
		},
		{
			"bufferView":14,
			"componentType":5123,
			"count":804,
			"type":"SCALAR"
		}
	],
	"bufferViews":[
		{
			"buffer":0,
			"byteLength":28476,
			"byteOffset":0,
			"target":34962
		},
		{
			"buffer":0,
			"byteLength":28476,
			"byteOffset":28476,
			"target":34962
		},
		{
			"buffer":0,
			"byteLength":8790,
			"byteOffset":56952,
			"target":34963
		},
		{
			"buffer":0,
			"byteLength":1224,
			"byteOffset":65744,
			"target":34962
		},
		{
			"buffer":0,
			"byteLength":1224,
			"byteOffset":66968,
			"target":34962
		},
		{
			"buffer":0,
			"byteLength":384,
			"byteOffset":68192,
			"target":34963
		},
		{
			"buffer":0,
			"byteLength":31680,
			"byteOffset":68576,
			"target":34962
		},
		{
			"buffer":0,
			"byteLength":31680,
			"byteOffset":100256,
			"target":34962
		},
		{
			"buffer":0,
			"byteLength":15264,
			"byteOffset":131936,
			"target":34963
		},
		{
			"buffer":0,
			"byteLength":864,
			"byteOffset":147200,
			"target":34962
		},
		{
			"buffer":0,
			"byteLength":864,
			"byteOffset":148064,
			"target":34962
		},
		{
			"buffer":0,
			"byteLength":264,
			"byteOffset":148928,
			"target":34963
		},
		{
			"buffer":0,
			"byteLength":4824,
			"byteOffset":149192,
			"target":34962
		},
		{
			"buffer":0,
			"byteLength":4824,
			"byteOffset":154016,
			"target":34962
		},
		{
			"buffer":0,
			"byteLength":1608,
			"byteOffset":158840,
			"target":34963
		}
	],
	"buffers":[
		{
			"byteLength":160448,
			"uri":"basicDinghy.bin"
		}
	]
}
